<?xml version="1.0" standalone="no"?>
<!DOCTYPE svg PUBLIC "-//W3C//DTD SVG 20010904//EN"
 "http://www.w3.org/TR/2001/REC-SVG-20010904/DTD/svg10.dtd">
<svg version="1.0" xmlns="http://www.w3.org/2000/svg"
 width="718.000000pt" height="718.000000pt" viewBox="0 0 718.000000 718.000000"
 preserveAspectRatio="xMidYMid meet">
<metadata>
Created by potrace 1.11, written by Peter Selinger 2001-2013
</metadata>
<g transform="translate(0.000000,718.000000) scale(0.100000,-0.100000)"
fill="#000000" stroke="none">
<path d="M171 6050 c-5 -4 -8 -329 -2 -350 1 -7 6861 -7 6862 0 1 3 2 83 3
178 1 109 -2 172 -9 173 -33 4 -6848 3 -6854 -1z"/>
<path d="M1199 5373 c-1 -14 -6 -35 -39 -163 -17 -69 -33 -133 -35 -143 -2
-10 -13 -51 -24 -91 -11 -40 -22 -83 -25 -97 -7 -33 -11 -52 -35 -139 -22 -83
-161 -626 -166 -650 -2 -8 -30 -121 -63 -250 -33 -129 -106 -415 -162 -635
-56 -220 -124 -488 -152 -595 -27 -107 -65 -256 -83 -330 -19 -74 -51 -204
-73 -288 l-39 -152 180 2 180 3 111 440 112 440 544 0 544 0 33 -135 c18 -74
35 -144 37 -155 2 -11 18 -78 36 -150 41 -169 46 -191 60 -245 7 -24 14 -54
16 -65 2 -11 10 -45 17 -75 l12 -55 187 -3 186 -2 -20 77 c-11 43 -21 85 -23
93 -12 53 -207 842 -215 870 -13 43 -98 389 -110 445 -5 22 -32 132 -60 245
-29 113 -53 212 -55 220 -7 31 -65 267 -75 300 -8 28 -97 390 -116 475 -3 11
-7 29 -10 40 -2 11 -46 189 -97 395 l-93 375 -242 3 c-133 1 -242 -1 -243 -5z
m263 -394 c10 -41 20 -83 22 -94 2 -11 20 -87 40 -170 33 -137 144 -611 182
-780 9 -38 27 -115 41 -170 13 -55 26 -111 29 -125 2 -14 11 -52 19 -85 56
-235 125 -531 125 -539 0 -3 -221 -6 -491 -6 l-491 0 7 33 c7 29 73 311 110
462 32 131 96 401 100 421 6 26 72 302 121 504 20 80 38 156 40 170 3 14 7 33
10 42 3 9 7 25 9 35 2 10 22 95 45 188 23 94 43 176 43 183 0 7 5 11 11 9 6
-2 19 -37 28 -78z"/>
<path d="M2315 5353 c4 -16 9 -37 11 -47 2 -10 8 -33 13 -50 6 -17 12 -42 15
-56 2 -14 41 -171 86 -350 44 -179 85 -343 90 -365 5 -22 14 -60 20 -85 7 -25
13 -52 15 -60 2 -8 65 -262 140 -565 75 -302 138 -558 140 -568 2 -10 36 -147
76 -305 39 -158 73 -295 75 -304 2 -10 6 -26 8 -36 2 -9 9 -37 16 -62 7 -25
13 -49 14 -55 1 -5 35 -144 75 -308 l74 -297 230 2 230 3 278 1105 c152 608
334 1330 404 1605 69 275 128 507 130 515 8 36 67 277 71 293 5 16 -8 17 -179
17 -163 0 -186 -2 -191 -17 -4 -9 -29 -116 -57 -237 -54 -233 -57 -246 -63
-273 -26 -114 -119 -512 -121 -523 -2 -8 -13 -53 -24 -100 -11 -47 -22 -96
-25 -110 -3 -14 -13 -54 -21 -90 -8 -36 -18 -76 -21 -90 -3 -14 -14 -61 -25
-105 -11 -44 -22 -93 -25 -110 -4 -25 -49 -215 -84 -360 -10 -42 -78 -337 -85
-368 -2 -9 -20 -88 -41 -175 -20 -86 -38 -166 -40 -177 -2 -11 -20 -87 -39
-170 -20 -82 -41 -172 -47 -200 l-11 -50 -10 35 c-11 41 -96 404 -103 439 -3
13 -32 139 -65 280 -56 238 -95 410 -104 454 -2 10 -7 27 -10 37 -3 10 -8 27
-10 37 -2 10 -9 41 -15 68 -6 28 -13 59 -16 69 -2 11 -10 49 -19 85 -27 116
-105 452 -135 581 -54 229 -122 525 -130 560 -19 88 -53 232 -70 300 -10 41
-21 86 -23 100 -3 14 -10 44 -16 68 l-12 42 -190 0 -191 0 7 -27z"/>
<path d="M4715 3610 l0 -1770 175 2 175 3 0 838 0 837 677 0 678 0 0 -840 0
-840 175 0 175 0 0 1770 0 1770 -175 0 -175 0 0 -780 0 -780 -677 2 -678 3 0
778 0 777 -175 0 -175 0 0 -1770z"/>
<path d="M170 1340 l0 -180 3435 0 3435 0 0 180 0 180 -3435 0 -3435 0 0 -180z"/>
</g>
</svg>
